<svg width="22" height="22" viewBox="0 0 22 22" fill="none" xmlns="http://www.w3.org/2000/svg">
<rect opacity="0.01" width="22" height="22" fill="#D8D8D8"/>
<path fill-rule="evenodd" clip-rule="evenodd" d="M8.11073 5.35467L6.05384 3.30078L5.13342 4.22014L17.0463 16.1156L17.9668 15.1963L16.2884 13.5204C16.7748 12.775 17.1015 11.9163 17.2202 10.9925H17.1983C17.1986 10.9853 17.1987 10.9781 17.1987 10.9709C17.1987 10.6717 16.9559 10.4292 16.6563 10.4292C16.3567 10.4292 16.1139 10.6717 16.1139 10.9709C16.1139 10.9781 16.114 10.9853 16.1143 10.9925H16.1021C16.0029 11.6127 15.7891 12.1947 15.4831 12.7162L14.369 11.6038C14.5757 11.1594 14.6911 10.664 14.6911 10.1416V6.90058C14.6911 4.98339 13.1369 3.42921 11.2197 3.42921C9.85797 3.42921 8.67935 4.21331 8.11073 5.35467ZM7.74836 8.73578L12.419 13.4003C12.0452 13.5379 11.6412 13.613 11.2197 13.613C9.30254 13.613 7.74836 12.0588 7.74836 10.1416V8.73578ZM14.3931 15.3718L13.5851 14.5649C12.8706 14.9593 12.0489 15.1838 11.1747 15.1838C8.68878 15.1838 6.6274 13.3683 6.24736 10.9925H6.22922C6.2295 10.9853 6.22964 10.9781 6.22964 10.9709C6.22964 10.6717 5.9868 10.4292 5.68724 10.4292C5.38768 10.4292 5.14484 10.6717 5.14484 10.9709C5.14484 11.0585 5.16566 11.1412 5.20263 11.2145C5.64593 13.8787 7.82755 15.9561 10.5443 16.2451V18.0499C10.5443 18.4094 10.8357 18.7008 11.1951 18.7008C11.5546 18.7008 11.846 18.4094 11.846 18.0499V16.2451C12.7733 16.1464 13.6383 15.8394 14.3931 15.3718Z" fill="#727275"/>
</svg>
