<svg width="22" height="22" viewBox="0 0 22 22" fill="none" xmlns="http://www.w3.org/2000/svg">
<rect opacity="0.01" width="22" height="22" fill="#D8D8D8"/>
<path fill-rule="evenodd" clip-rule="evenodd" d="M6.7748 5.79288L3.95694 2.93359L3.04029 3.86376L16.2164 17.2336L17.1331 16.3034L14.2063 13.3336C14.231 13.1797 14.2439 13.0219 14.2439 12.8611V8.74173C14.2439 7.11312 12.9237 5.79288 11.2951 5.79288H6.7748ZM2.93335 8.74173C2.93335 7.9027 3.28376 7.14551 3.84622 6.60853L12.61 15.5012C12.2141 15.6988 11.7676 15.8099 11.2951 15.8099H5.8822C4.2536 15.8099 2.93335 14.4897 2.93335 12.8611V8.74173ZM18.3792 6.96921L15.3622 9.28288L15.3483 12.3812L18.3795 14.7036C18.8106 15.0339 19.4333 14.7265 19.4333 14.1834V7.48921C19.4333 6.94597 18.8103 6.63863 18.3792 6.96921Z" fill="#727275"/>
</svg>
