<svg width="22" height="23" viewBox="0 0 22 23" fill="none" xmlns="http://www.w3.org/2000/svg">
<rect opacity="0.01" y="0.5" width="22" height="22" fill="#D8D8D8"/>
<path fill-rule="evenodd" clip-rule="evenodd" d="M13.754 4.70615C13.3531 4.30528 12.7032 4.30528 12.3023 4.70615L12.2511 4.75738C11.8502 5.15825 11.8502 5.80818 12.2511 6.20905L12.5139 6.4719L8.54726 8.52291L7.7424 7.71805C7.34154 7.31718 6.6916 7.31718 6.29074 7.71805L6.2395 7.76929C5.83864 8.17015 5.83864 8.82009 6.2395 9.22095L13.3043 16.2857C13.7051 16.6866 14.3551 16.6866 14.7559 16.2857L14.8072 16.2345C15.208 15.8336 15.208 15.1837 14.8072 14.7828L14.0023 13.978L16.0533 10.0113L16.3101 10.268C16.7109 10.6689 17.3609 10.6689 17.7617 10.268L17.813 10.2168C18.2138 9.81592 18.2138 9.16599 17.813 8.76512L13.754 4.70615ZM6.43554 17.1015C5.62728 17.6998 4.51171 18.0135 4.51171 18.0135C4.51171 18.0135 4.85061 16.9232 5.43999 16.0833C6.02937 15.2435 8.21763 12.7327 8.21763 12.7327L9.81446 14.3295C9.81446 14.3295 7.2438 16.5031 6.43554 17.1015Z" fill="#727275"/>
</svg>
