<svg width="22" height="23" viewBox="0 0 22 23" fill="none" xmlns="http://www.w3.org/2000/svg">
<rect opacity="0.01" y="0.5" width="22" height="22" fill="#D8D8D8"/>
<path fill-rule="evenodd" clip-rule="evenodd" d="M7.74219 7.49992C7.74219 5.57883 9.29954 4.02148 11.2206 4.02148C13.1417 4.02148 14.6991 5.57883 14.6991 7.49992V10.6117C14.6991 12.5328 13.1417 14.0902 11.2206 14.0902C9.29954 14.0902 7.74219 12.5328 7.74219 10.6117V7.49992ZM10.5438 16.7716C7.82158 16.4859 5.63556 14.432 5.19128 11.798C5.15419 11.7256 5.1333 11.6437 5.1333 11.5571C5.1333 11.2613 5.37664 11.0215 5.67681 11.0215C5.97698 11.0215 6.22031 11.2613 6.22031 11.5571C6.22031 11.5642 6.22017 11.5713 6.21989 11.5784H6.23808C6.61891 13.9273 8.68448 15.7222 11.1755 15.7222C13.6665 15.7222 15.732 13.9273 16.1129 11.5784H16.1252C16.1249 11.5713 16.1248 11.5642 16.1248 11.5571C16.1248 11.2613 16.3681 11.0215 16.6683 11.0215C16.9684 11.0215 17.2118 11.2613 17.2118 11.5571C17.2118 11.5642 17.2116 11.5713 17.2113 11.5784H17.2333C16.8766 14.3172 14.6455 16.478 11.8482 16.7716V18.5474C11.8482 18.9076 11.5562 19.1996 11.196 19.1996C10.8358 19.1996 10.5438 18.9076 10.5438 18.5474V16.7716Z" fill="#727275"/>
</svg>
