<svg width="22" height="22" viewBox="0 0 22 22" fill="none" xmlns="http://www.w3.org/2000/svg">
<path d="M4.66656 16.8331C4.37367 16.5402 4.37367 16.0653 4.66656 15.7724L15.6267 4.81225C15.9196 4.51936 16.3945 4.51936 16.6874 4.81225C16.9803 5.10514 16.9803 5.58002 16.6874 5.87291L5.72722 16.8331C5.43433 17.126 4.95945 17.126 4.66656 16.8331Z" fill="#A0A0A3"/>
<path d="M5.01996 4.46002C5.31286 4.16712 5.78773 4.16712 6.08062 4.46002L17.0408 15.4202C17.3337 15.7131 17.3337 16.1879 17.0408 16.4808C16.7479 16.7737 16.273 16.7737 15.9801 16.4808L5.01996 5.52068C4.72707 5.22778 4.72707 4.75291 5.01996 4.46002Z" fill="#A0A0A3"/>
</svg>
