<svg width="22" height="22" viewBox="0 0 22 22" fill="none" xmlns="http://www.w3.org/2000/svg">
<path fill-rule="evenodd" clip-rule="evenodd" d="M13.0001 6.5C13.0001 8.70914 11.2092 10.5 9.00006 10.5C6.79092 10.5 5.00006 8.70914 5.00006 6.5C5.00006 4.29086 6.79092 2.5 9.00006 2.5C11.2092 2.5 13.0001 4.29086 13.0001 6.5ZM9 12.5C4.30538 12.5 0.5 14.7344 0.5 17.5V18C0.523103 18.7893 1.26718 19.5 2 19.5H13.4308C12.5592 18.4845 12.0319 17.1597 12.0319 15.7105C12.0319 14.7298 12.2734 13.806 12.6997 12.9965C11.5812 12.6783 10.3261 12.5 9 12.5Z" fill="white"/>
<mask id="path-2-inside-1_322_26833" fill="white">
<path fill-rule="evenodd" clip-rule="evenodd" d="M18.4999 16.5V18.3965V18.75C18.4999 19.1642 18.1641 19.5 17.7499 19.5C17.3357 19.5 16.9999 19.1642 16.9999 18.75V18.3965V16.5H15.1035H14.75C14.3358 16.5 14 16.1642 14 15.75C14 15.3358 14.3358 15 14.75 15H15.1035H16.9999V13.1035V12.75C16.9999 12.3358 17.3357 12 17.7499 12C18.1641 12 18.4999 12.3358 18.4999 12.75V13.1035V15H20.3965H20.75C21.1642 15 21.5 15.3358 21.5 15.75C21.5 16.1642 21.1642 16.5 20.75 16.5H20.3965H18.4999Z"/>
</mask>
<path d="M18.4999 16.5V14.9211H16.921V16.5H18.4999ZM16.9999 16.5H18.5789V14.9211H16.9999V16.5ZM16.9999 15V16.579H18.5789V15H16.9999ZM18.4999 15H16.921V16.579H18.4999V15ZM20.0789 18.3965V16.5H16.921V18.3965H20.0789ZM20.0789 18.75V18.3965H16.921V18.75H20.0789ZM17.7499 21.0789C19.0362 21.0789 20.0789 20.0362 20.0789 18.75H16.921C16.921 18.2922 17.2921 17.9211 17.7499 17.9211V21.0789ZM15.421 18.75C15.421 20.0362 16.4637 21.0789 17.7499 21.0789V17.9211C18.2077 17.9211 18.5789 18.2922 18.5789 18.75H15.421ZM15.421 18.3965V18.75H18.5789V18.3965H15.421ZM15.421 16.5V18.3965H18.5789V16.5H15.421ZM15.1035 18.079H16.9999V14.9211H15.1035V18.079ZM14.75 18.079H15.1035V14.9211H14.75V18.079ZM12.4211 15.75C12.4211 17.0363 13.4638 18.079 14.75 18.079V14.9211C15.2078 14.9211 15.5789 15.2922 15.5789 15.75H12.4211ZM14.75 13.4211C13.4638 13.4211 12.4211 14.4638 12.4211 15.75H15.5789C15.5789 16.2078 15.2078 16.579 14.75 16.579V13.4211ZM15.1035 13.4211H14.75V16.579H15.1035V13.4211ZM16.9999 13.4211H15.1035V16.579H16.9999V13.4211ZM15.421 13.1035V15H18.5789V13.1035H15.421ZM15.421 12.75V13.1035H18.5789V12.75H15.421ZM17.7499 10.4211C16.4637 10.4211 15.421 11.4638 15.421 12.75H18.5789C18.5789 13.2078 18.2077 13.5789 17.7499 13.5789V10.4211ZM20.0789 12.75C20.0789 11.4638 19.0362 10.4211 17.7499 10.4211V13.5789C17.2921 13.5789 16.921 13.2078 16.921 12.75H20.0789ZM20.0789 13.1035V12.75H16.921V13.1035H20.0789ZM20.0789 15V13.1035H16.921V15H20.0789ZM20.3965 13.4211H18.4999V16.579H20.3965V13.4211ZM20.75 13.4211H20.3965V16.579H20.75V13.4211ZM23.0789 15.75C23.0789 14.4638 22.0362 13.4211 20.75 13.4211V16.579C20.2922 16.579 19.9211 16.2078 19.9211 15.75H23.0789ZM20.75 18.079C22.0362 18.079 23.0789 17.0363 23.0789 15.75H19.9211C19.9211 15.2922 20.2922 14.9211 20.75 14.9211V18.079ZM20.3965 18.079H20.75V14.9211H20.3965V18.079ZM18.4999 18.079H20.3965V14.9211H18.4999V18.079Z" fill="white" mask="url(#path-2-inside-1_322_26833)"/>
</svg>
