<?xml version="1.0" encoding="UTF-8"?>
<svg width="56px" height="56px" viewBox="0 0 56 56" version="1.1" xmlns="http://www.w3.org/2000/svg" xmlns:xlink="http://www.w3.org/1999/xlink">
    <title>编组 3备份</title>
    <defs>
        <path d="M25.9381883,0 C25.4207339,4.49298262 26.0734146,7.23424136 27.8962302,8.22377622 C29.7143269,8.9810137 32.6003806,9.98839816 36.5543913,11.2459296 C31.654346,15.4643195 25.2758386,18.013986 18.3018246,18.013986 C11.3052147,18.013986 4.90797643,15.4477708 7.99360578e-15,11.2052304 C4.79005211,9.9663427 8.08407716,8.972713 9.88224422,8.22377622 C11.6529795,7.26251379 12.3194893,4.648196 11.8817738,0.38082286 L11.8402862,0 L18.8892372,1.17482517 L25.9381883,0 Z" id="path-1"></path>
        <linearGradient x1="82.3697857%" y1="55.2272263%" x2="31.2023591%" y2="65.409564%" id="linearGradient-3">
            <stop stop-color="#B8CBF1" stop-opacity="0.358255026" offset="0%"></stop>
            <stop stop-color="#B8CBF1" stop-opacity="0" offset="99.9016608%"></stop>
        </linearGradient>
        <path d="M0.871440503,10.6471496 C-0.080646025,11.181897 -0.252585698,12.2001739 0.355621483,13.7019803 C0.963828665,15.2037867 2.12080998,16.650992 3.82656543,18.0435961 C6.70168402,23.5957861 9.79392433,26.3718811 13.1032863,26.3718811 C16.4126484,26.3718811 19.7200549,23.5957861 23.025506,18.0435961 C25.0761522,16.3359205 26.2525515,14.8887152 26.554704,13.7019803 C27.0079328,11.9218778 26.5252233,10.6471496 25.5289783,10.6471496 C24.864815,10.6471496 24.0303242,8.42251136 23.025506,3.97323489 L17.3312745,0 L5.34675555,2.64890182 L2.5439492,8.37919367 L0.871440503,10.6471496 Z" id="path-4"></path>
        <linearGradient x1="82.6195172%" y1="50%" x2="29.9046243%" y2="50%" id="linearGradient-6">
            <stop stop-color="#B8CBF1" stop-opacity="0.119126967" offset="0%"></stop>
            <stop stop-color="#B8CBF1" stop-opacity="0" offset="99.9016608%"></stop>
        </linearGradient>
    </defs>
    <g id="页面-1" stroke="none" stroke-width="1" fill="none" fill-rule="evenodd">
        <g id="编组-3备份">
            <g id="形状结合">
                <path d="M28,0 C43.463973,-2.84068575e-15 56,12.536027 56,28 C56,43.463973 43.463973,56 28,56 C12.536027,56 -1.23170642e-14,43.463973 0,28 C-1.8937905e-15,12.536027 12.536027,2.84068575e-15 28,0 Z" id="蒙版" fill="#D3E2FF"></path>
                <g id="路径-2" transform="translate(9.698175, 37.986014)">
                    <mask id="mask-2" fill="white">
                        <use xlink:href="#path-1"></use>
                    </mask>
                    <use id="蒙版" fill="#FFFFFF" xlink:href="#path-1"></use>
                    <path d="M24.0671285,2.09443797 C21.825851,8.31372593 15.1379644,10.8789832 4.00346895,9.79020979 C-7.13102653,8.70143638 -3.78708326,3.88134287 14.0352987,-4.67007073 L24.0671285,2.09443797 Z" fill="url(#linearGradient-3)" mask="url(#mask-2)"></path>
                </g>
            </g>
            <g id="路径-4" transform="translate(15.389018, 16.164276)">
                <mask id="mask-5" fill="white">
                    <use xlink:href="#path-4"></use>
                </mask>
                <use id="蒙版" fill="#FFFFFF" xlink:href="#path-4"></use>
                <path d="M14.2821757,3.60788713 C13.4962495,5.95971113 13.1032863,7.93333225 13.1032863,9.52875049 C13.1134532,9.55860419 12.417557,11.3986118 11.0155979,15.0487733 C10.7185714,16.7341241 11.4144676,17.5767995 13.1032863,17.5767995 C12.9990489,17.5494943 12.1278471,21.9814588 12.6155667,26.0754938 C12.9407131,28.8048506 10.3409314,28.6429124 4.81622136,25.5896794 L-4.95948339,10.4282936 L2.72486014,-1.6805874 L11.3017566,-0.0593128049 L14.2821757,3.60788713 Z" fill="url(#linearGradient-6)" mask="url(#mask-5)"></path>
            </g>
            <path d="M19.2953749,27.6843968 C18.1629527,26.8114256 17.151314,26.5204352 16.2604587,26.8114256 C16.2046922,26.8526558 14.6535363,20.0031489 17.216419,14.4352155 C18.9250075,10.7232599 23.0385175,8.69786804 29.5569491,8.35903999 C35.1625007,9.04198203 38.7810715,11.3560737 40.4126617,15.301315 C41.3082742,17.8782054 41.4767192,21.7149089 40.9179965,26.8114256 C40.0667857,26.6024552 39.3811126,26.8934456 38.8609772,27.6843968 C38.7166713,27.7454493 37.9463683,18.4813299 34.6375198,19.032388 C31.3286713,19.5834461 28.6385189,20.5536784 25.3686431,19.7930332 C21.621448,18.7074796 19.5970253,21.3379341 19.2953749,27.6843968 Z" id="路径" fill="#B8CBF1"></path>
        </g>
    </g>
</svg>