<svg width="26" height="26" viewBox="0 0 26 26" fill="none" xmlns="http://www.w3.org/2000/svg">
    <defs>
        <linearGradient id="paint0_linear_441_19642" x1="5.81589" y1="8.45142" x2="20.836"
            y2="15.7232" gradientUnits="userSpaceOnUse">
            <stop stop-color="#8D97B3" />
            <stop offset="1" stop-color="#666F8C" />
        </linearGradient>
    </defs>
    <path fill-rule="evenodd" clip-rule="evenodd"
        d="M11 4.89698C11 4.72859 11.0848 4.5715 11.2255 4.47906L14.2255 2.50869C14.558 2.29031 15 2.52882 15 2.92661V5.30002C15 5.68662 14.6866 6.00002 14.3 6.00002H11.7C11.3134 6.00002 11 5.68662 11 5.30002V4.89698ZM10.4692 7.00002C10.0826 7.00002 9.76923 7.31342 9.76923 7.70002V9.30208C9.76923 9.45343 9.70067 9.59665 9.58277 9.69156L7.37293 11.4705C7.13712 11.6603 7 11.9468 7 12.2495V13.3C7 13.6866 7.3134 14 7.7 14H18.3C18.6866 14 19 13.6866 19 13.3V12.2495C19 11.9468 18.8629 11.6603 18.6271 11.4705L16.4172 9.69156C16.2993 9.59665 16.2308 9.45343 16.2308 9.30208V7.70002C16.2308 7.31342 15.9174 7.00002 15.5308 7.00002H10.4692ZM6.7 15C6.3134 15 6 15.3134 6 15.7V21C6 22.1046 6.89543 23 8 23H18C19.1046 23 20 22.1046 20 21V15.7C20 15.3134 19.6866 15 19.3 15H6.7ZM8.5 19.0001C8.22386 19.0001 8 19.2239 8 19.5001V20.5001C8 20.7762 8.22386 21.0001 8.5 21.0001H11.5C11.7761 21.0001 12 20.7762 12 20.5001V19.5001C12 19.2239 11.7761 19.0001 11.5 19.0001H8.5Z"
        fill="url(#paint0_linear_441_19642)" />
</svg>
