<svg width="22" height="22" viewBox="0 0 22 22" fill="none" xmlns="http://www.w3.org/2000/svg">
<path fill-rule="evenodd" clip-rule="evenodd" d="M9 2.7C9 2.3134 9.3134 2 9.7 2H12.3C12.6866 2 13 2.3134 13 2.7V11L16.3338 11C16.954 11 17.2679 11.747 16.8337 12.19L11.7142 17.4135C11.3221 17.8135 10.6779 17.8135 10.2858 17.4135L5.16629 12.19C4.73214 11.747 5.04597 11 5.66621 11L9 11V2.7ZM17.3 18C17.6866 18 18 18.3134 18 18.7V19.3C18 19.6866 17.6866 20 17.3 20H4.7C4.3134 20 4 19.6866 4 19.3L4 18.7C4 18.3134 4.3134 18 4.7 18H17.3Z" fill="white"/>
</svg>
