<svg width="28" height="28" viewBox="0 0 28 28" fill="none" xmlns="http://www.w3.org/2000/svg">
<path d="M8.91164 5H18.5884C18.9461 5 19.2766 5.19112 19.4551 5.5012L24.0592 13.5012C24.2369 13.81 24.2369 14.19 24.0592 14.4988L19.4551 22.4988C19.2766 22.8089 18.9461 23 18.5884 23H8.91164C8.55388 23 8.22338 22.8089 8.04493 22.4988L3.44085 14.4988C3.26314 14.19 3.26314 13.81 3.44085 13.5012L8.04493 5.5012L7.17821 5.00239L8.04493 5.5012C8.22338 5.19112 8.55389 5 8.91164 5Z" stroke="#3377FF" stroke-width="2"/>
<mask id="mask0_441_19174" style="mask-type:alpha" maskUnits="userSpaceOnUse" x="5" y="7" width="18" height="14">
<path d="M18.0867 7H9.41327L5.25 14L9.41327 21H18.0867L22.25 14L18.0867 7Z" fill="#D9D9D9"/>
</mask>
<g mask="url(#mask0_441_19174)">
<path opacity="0.4" fill-rule="evenodd" clip-rule="evenodd" d="M10 6C9.72386 6 9.5 6.22386 9.5 6.5V7.5C9.5 7.77614 9.72386 8 10 8H11C11.2761 8 11.5 7.77614 11.5 7.5V6.5C11.5 6.22386 11.2761 6 11 6H10ZM6 10C6 9.72386 6.22386 9.5 6.5 9.5H7.5C7.77614 9.5 8 9.72386 8 10V11C8 11.2761 7.77614 11.5 7.5 11.5H6.5C6.22386 11.5 6 11.2761 6 11V10ZM9.5 10C9.5 9.72386 9.72386 9.5 10 9.5H11C11.2761 9.5 11.5 9.72386 11.5 10V11C11.5 11.2761 11.2761 11.5 11 11.5H10C9.72386 11.5 9.5 11.2761 9.5 11V10ZM9.5 13.5C9.5 13.2239 9.72386 13 10 13H11C11.2761 13 11.5 13.2239 11.5 13.5V14.5C11.5 14.7761 11.2761 15 11 15H10C9.72386 15 9.5 14.7761 9.5 14.5V13.5ZM10 16.5C9.72386 16.5 9.5 16.7239 9.5 17V18C9.5 18.2761 9.72386 18.5 10 18.5H11C11.2761 18.5 11.5 18.2761 11.5 18V17C11.5 16.7239 11.2761 16.5 11 16.5H10ZM9.5 20.5C9.5 20.2239 9.72386 20 10 20H11C11.2761 20 11.5 20.2239 11.5 20.5V21.5C11.5 21.7761 11.2761 22 11 22H10C9.72386 22 9.5 21.7761 9.5 21.5V20.5ZM13.5 9.5C13.2239 9.5 13 9.72386 13 10V11C13 11.2761 13.2239 11.5 13.5 11.5H14.5C14.7761 11.5 15 11.2761 15 11V10C15 9.72386 14.7761 9.5 14.5 9.5H13.5ZM13 13.5C13 13.2239 13.2239 13 13.5 13H14.5C14.7761 13 15 13.2239 15 13.5V14.5C15 14.7761 14.7761 15 14.5 15H13.5C13.2239 15 13 14.7761 13 14.5V13.5ZM13.5 16.5C13.2239 16.5 13 16.7239 13 17V18C13 18.2761 13.2239 18.5 13.5 18.5H14.5C14.7761 18.5 15 18.2761 15 18V17C15 16.7239 14.7761 16.5 14.5 16.5H13.5ZM13 20.5C13 20.2239 13.2239 20 13.5 20H14.5C14.7761 20 15 20.2239 15 20.5V21.5C15 21.7761 14.7761 22 14.5 22H13.5C13.2239 22 13 21.7761 13 21.5V20.5ZM17 9.5C16.7239 9.5 16.5 9.72386 16.5 10V11C16.5 11.2761 16.7239 11.5 17 11.5H18C18.2761 11.5 18.5 11.2761 18.5 11V10C18.5 9.72386 18.2761 9.5 18 9.5H17ZM16.5 13.5C16.5 13.2239 16.7239 13 17 13H18C18.2761 13 18.5 13.2239 18.5 13.5V14.5C18.5 14.7761 18.2761 15 18 15H17C16.7239 15 16.5 14.7761 16.5 14.5V13.5ZM17 16.5C16.7239 16.5 16.5 16.7239 16.5 17V18C16.5 18.2761 16.7239 18.5 17 18.5H18C18.2761 18.5 18.5 18.2761 18.5 18V17C18.5 16.7239 18.2761 16.5 18 16.5H17ZM16.5 20.5C16.5 20.2239 16.7239 20 17 20H18C18.2761 20 18.5 20.2239 18.5 20.5V21.5C18.5 21.7761 18.2761 22 18 22H17C16.7239 22 16.5 21.7761 16.5 21.5V20.5ZM20.5 9.5C20.2239 9.5 20 9.72386 20 10V11C20 11.2761 20.2239 11.5 20.5 11.5H21.5C21.7761 11.5 22 11.2761 22 11V10C22 9.72386 21.7761 9.5 21.5 9.5H20.5ZM20 13.5C20 13.2239 20.2239 13 20.5 13H21.5C21.7761 13 22 13.2239 22 13.5V14.5C22 14.7761 21.7761 15 21.5 15H20.5C20.2239 15 20 14.7761 20 14.5V13.5ZM20.5 16.5C20.2239 16.5 20 16.7239 20 17V18C20 18.2761 20.2239 18.5 20.5 18.5H21.5C21.7761 18.5 22 18.2761 22 18V17C22 16.7239 21.7761 16.5 21.5 16.5H20.5ZM6.5 13C6.22386 13 6 13.2239 6 13.5V14.5C6 14.7761 6.22386 15 6.5 15H7.5C7.77614 15 8 14.7761 8 14.5V13.5C8 13.2239 7.77614 13 7.5 13H6.5ZM6 17C6 16.7239 6.22386 16.5 6.5 16.5H7.5C7.77614 16.5 8 16.7239 8 17V18C8 18.2761 7.77614 18.5 7.5 18.5H6.5C6.22386 18.5 6 18.2761 6 18V17ZM13 6.5C13 6.22386 13.2239 6 13.5 6H14.5C14.7761 6 15 6.22386 15 6.5V7.5C15 7.77614 14.7761 8 14.5 8H13.5C13.2239 8 13 7.77614 13 7.5V6.5ZM17 6C16.7239 6 16.5 6.22386 16.5 6.5V7.5C16.5 7.77614 16.7239 8 17 8H18C18.2761 8 18.5 7.77614 18.5 7.5V6.5C18.5 6.22386 18.2761 6 18 6H17Z" fill="#3377FF"/>
</g>
</svg>
