<svg width="26" height="26" viewBox="0 0 26 26" fill="none" xmlns="http://www.w3.org/2000/svg">
    <defs>
        <linearGradient id="paint0_linear_441_19620" x1="2.21875" y1="0.589192" x2="21.9212"
            y2="14.2103" gradientUnits="userSpaceOnUse">
            <stop stop-color="#54CAFF" />
            <stop offset="1" stop-color="#3377FF" />
        </linearGradient>
    </defs>
    <path fill-rule="evenodd" clip-rule="evenodd"
        d="M11.6326 6.88197H14.3674C14.8877 6.88197 15.2262 6.33435 14.9935 5.86892L13.4472 2.77639C13.263 2.40787 12.737 2.40787 12.5528 2.77639L11.0065 5.86892C10.7738 6.33435 11.1123 6.88197 11.6326 6.88197ZM10.1961 8.40871C10.2401 8.10627 10.4994 7.88196 10.805 7.88196H15.195C15.5006 7.88196 15.7599 8.10627 15.8039 8.40871C16.1118 10.5257 16.9302 12.536 18.1885 14.2661L18.8087 15.119C18.933 15.2899 19 15.4958 19 15.7071V17.182C19 17.5686 18.6866 17.882 18.3 17.882H7.7C7.3134 17.882 7 17.5686 7 17.182V15.7071C7 15.4958 7.06696 15.2899 7.19126 15.119L7.8115 14.2661C9.06977 12.536 9.88818 10.5257 10.1961 8.40871ZM5.5 19.582C5.5 19.1954 5.8134 18.882 6.2 18.882H19.8C20.1866 18.882 20.5 19.1954 20.5 19.582V20.882C20.5 21.9865 19.6046 22.882 18.5 22.882H7.5C6.39543 22.882 5.5 21.9865 5.5 20.882V19.582Z"
        fill="url(#paint0_linear_441_19620)" />
</svg>
