<svg width="22" height="22" viewBox="0 0 22 22" fill="none" xmlns="http://www.w3.org/2000/svg">
<path fill-rule="evenodd" clip-rule="evenodd" d="M7.8 2.63335C7.8 2.24675 8.1134 1.93335 8.5 1.93335H13.5C13.8866 1.93335 14.2 2.24675 14.2 2.63335V3.53335H18.3C18.6866 3.53335 19 3.84675 19 4.23335V4.96668C19 5.35328 18.6866 5.66668 18.3 5.66668H3.7C3.3134 5.66668 3 5.35328 3 4.96668V4.23335C3 3.84675 3.3134 3.53335 3.7 3.53335H7.8V2.63335ZM4.1414 7.80309C4.10097 7.22476 4.55922 6.73335 5.13897 6.73335H16.8609C17.4407 6.73335 17.8989 7.22476 17.8585 7.80309L17.0661 19.1364C17.0295 19.6604 16.5938 20.0667 16.0685 20.0667H5.93135C5.40613 20.0667 4.97042 19.6604 4.93379 19.1364L4.1414 7.80309ZM8.86672 11C8.42489 11 8.06672 11.3582 8.06672 11.8V15.5333C8.06672 15.9752 8.42489 16.3333 8.86672 16.3333C9.30855 16.3333 9.66672 15.9752 9.66672 15.5333V11.8C9.66672 11.3582 9.30855 11 8.86672 11ZM13.1333 11C12.6914 11 12.3333 11.3582 12.3333 11.8V15.5333C12.3333 15.9752 12.6914 16.3333 13.1333 16.3333C13.5751 16.3333 13.9333 15.9752 13.9333 15.5333V11.8C13.9333 11.3582 13.5751 11 13.1333 11Z" fill="white"/>
</svg>
