<svg width="22" height="22" viewBox="0 0 22 22" fill="none" xmlns="http://www.w3.org/2000/svg">
    <defs>
        <linearGradient id="paint0_linear_441_19533" x1="0.47819" y1="6.5533" x2="18.6511"
            y2="19.4829" gradientUnits="userSpaceOnUse">
            <stop stop-color="#8D97B3" />
            <stop offset="1" stop-color="#666F8C" />
        </linearGradient>
    </defs>
    <path fill-rule="evenodd" clip-rule="evenodd"
        d="M10.8014 0.617136C10.9577 0.460955 11.211 0.460955 11.3672 0.617136L14.6448 3.89349C14.8968 4.14543 14.7183 4.57621 14.3619 4.57621H12.5843V9.3343H17.3417V7.55738C17.3417 7.20102 17.7725 7.02256 18.0245 7.27454L21.3015 10.5515C21.4577 10.7077 21.4577 10.961 21.3015 11.1172L18.0245 14.3941C17.7725 14.6461 17.3417 14.4676 17.3417 14.1113V12.3343H12.5843V17.0917H14.3613C14.7177 17.0917 14.8961 17.5226 14.6441 17.7746L11.3672 21.0515C11.211 21.2077 10.9577 21.2077 10.8015 21.0515L7.5245 17.7746C7.27252 17.5226 7.45099 17.0917 7.80735 17.0917H9.58432V12.3343H4.8263L4.8263 14.1118C4.8263 14.4682 4.39551 14.6467 4.14357 14.3947L0.867138 11.1172C0.710954 10.961 0.710954 10.7077 0.867139 10.5514L4.14357 7.27395C4.39551 7.02193 4.8263 7.20042 4.8263 7.55684L4.8263 9.3343H9.58432V4.57621H7.80677C7.45034 4.57621 7.27184 4.14543 7.52387 3.89349L10.8014 0.617136Z"
        fill="url(#paint0_linear_441_19533)" />
</svg>
