<svg width="28" height="28" viewBox="0 0 28 28" fill="none" xmlns="http://www.w3.org/2000/svg">
<rect x="5" y="5" width="18" height="18" rx="1" stroke="#3377FF" stroke-width="2"/>
<path opacity="0.4" fill-rule="evenodd" clip-rule="evenodd" d="M8.25 7.75C7.97386 7.75 7.75 7.97386 7.75 8.25V9.25C7.75 9.52614 7.97386 9.75 8.25 9.75H9.25C9.52614 9.75 9.75 9.52614 9.75 9.25V8.25C9.75 7.97386 9.52614 7.75 9.25 7.75H8.25ZM8.25 11.25C7.97386 11.25 7.75 11.4739 7.75 11.75V12.75C7.75 13.0261 7.97386 13.25 8.25 13.25H9.25C9.52614 13.25 9.75 13.0261 9.75 12.75V11.75C9.75 11.4739 9.52614 11.25 9.25 11.25H8.25ZM7.75 15.25C7.75 14.9739 7.97386 14.75 8.25 14.75H9.25C9.52614 14.75 9.75 14.9739 9.75 15.25V16.25C9.75 16.5261 9.52614 16.75 9.25 16.75H8.25C7.97386 16.75 7.75 16.5261 7.75 16.25V15.25ZM8.25 18.25C7.97386 18.25 7.75 18.4739 7.75 18.75V19.75C7.75 20.0261 7.97386 20.25 8.25 20.25H9.25C9.52614 20.25 9.75 20.0261 9.75 19.75V18.75C9.75 18.4739 9.52614 18.25 9.25 18.25H8.25ZM11.25 8.25C11.25 7.97386 11.4739 7.75 11.75 7.75H12.75C13.0261 7.75 13.25 7.97386 13.25 8.25V9.25C13.25 9.52614 13.0261 9.75 12.75 9.75H11.75C11.4739 9.75 11.25 9.52614 11.25 9.25V8.25ZM11.75 11.25C11.4739 11.25 11.25 11.4739 11.25 11.75V12.75C11.25 13.0261 11.4739 13.25 11.75 13.25H12.75C13.0261 13.25 13.25 13.0261 13.25 12.75V11.75C13.25 11.4739 13.0261 11.25 12.75 11.25H11.75ZM11.25 15.25C11.25 14.9739 11.4739 14.75 11.75 14.75H12.75C13.0261 14.75 13.25 14.9739 13.25 15.25V16.25C13.25 16.5261 13.0261 16.75 12.75 16.75H11.75C11.4739 16.75 11.25 16.5261 11.25 16.25V15.25ZM11.75 18.25C11.4739 18.25 11.25 18.4739 11.25 18.75V19.75C11.25 20.0261 11.4739 20.25 11.75 20.25H12.75C13.0261 20.25 13.25 20.0261 13.25 19.75V18.75C13.25 18.4739 13.0261 18.25 12.75 18.25H11.75ZM14.75 8.25C14.75 7.97386 14.9739 7.75 15.25 7.75H16.25C16.5261 7.75 16.75 7.97386 16.75 8.25V9.25C16.75 9.52614 16.5261 9.75 16.25 9.75H15.25C14.9739 9.75 14.75 9.52614 14.75 9.25V8.25ZM15.25 11.25C14.9739 11.25 14.75 11.4739 14.75 11.75V12.75C14.75 13.0261 14.9739 13.25 15.25 13.25H16.25C16.5261 13.25 16.75 13.0261 16.75 12.75V11.75C16.75 11.4739 16.5261 11.25 16.25 11.25H15.25ZM14.75 15.25C14.75 14.9739 14.9739 14.75 15.25 14.75H16.25C16.5261 14.75 16.75 14.9739 16.75 15.25V16.25C16.75 16.5261 16.5261 16.75 16.25 16.75H15.25C14.9739 16.75 14.75 16.5261 14.75 16.25V15.25ZM15.25 18.25C14.9739 18.25 14.75 18.4739 14.75 18.75V19.75C14.75 20.0261 14.9739 20.25 15.25 20.25H16.25C16.5261 20.25 16.75 20.0261 16.75 19.75V18.75C16.75 18.4739 16.5261 18.25 16.25 18.25H15.25ZM18.25 8.25C18.25 7.97386 18.4739 7.75 18.75 7.75H19.75C20.0261 7.75 20.25 7.97386 20.25 8.25V9.25C20.25 9.52614 20.0261 9.75 19.75 9.75H18.75C18.4739 9.75 18.25 9.52614 18.25 9.25V8.25ZM18.75 11.25C18.4739 11.25 18.25 11.4739 18.25 11.75V12.75C18.25 13.0261 18.4739 13.25 18.75 13.25H19.75C20.0261 13.25 20.25 13.0261 20.25 12.75V11.75C20.25 11.4739 20.0261 11.25 19.75 11.25H18.75ZM18.25 15.25C18.25 14.9739 18.4739 14.75 18.75 14.75H19.75C20.0261 14.75 20.25 14.9739 20.25 15.25V16.25C20.25 16.5261 20.0261 16.75 19.75 16.75H18.75C18.4739 16.75 18.25 16.5261 18.25 16.25V15.25ZM18.75 18.25C18.4739 18.25 18.25 18.4739 18.25 18.75V19.75C18.25 20.0261 18.4739 20.25 18.75 20.25H19.75C20.0261 20.25 20.25 20.0261 20.25 19.75V18.75C20.25 18.4739 20.0261 18.25 19.75 18.25H18.75Z" fill="#3377FF"/>
</svg>
