<svg width="22" height="22" viewBox="0 0 22 22" fill="none" xmlns="http://www.w3.org/2000/svg">
    <defs>
        <linearGradient id="paint0_linear_441_20400" x1="-3.77126" y1="-1.43769" x2="17.5433"
            y2="18.5851" gradientUnits="userSpaceOnUse">
            <stop stop-color="#54CAFF" />
            <stop offset="1" stop-color="#3377FF" />
        </linearGradient>
    </defs>
    <path fill-rule="evenodd" clip-rule="evenodd"
        d="M10.8014 0.617142C10.9577 0.460961 11.211 0.460961 11.3672 0.617142L14.6448 3.8935C14.8968 4.14544 14.7183 4.57622 14.3619 4.57622H12.5843V9.33431H17.3417V7.55739C17.3417 7.20103 17.7725 7.02256 18.0245 7.27455L21.3015 10.5515C21.4577 10.7077 21.4577 10.961 21.3015 11.1172L18.0245 14.3941C17.7725 14.6461 17.3417 14.4676 17.3417 14.1113V12.3343H12.5843V17.0917H14.3613C14.7177 17.0917 14.8961 17.5226 14.6441 17.7746L11.3672 21.0515C11.211 21.2077 10.9577 21.2077 10.8015 21.0515L7.52451 17.7746C7.27252 17.5226 7.45098 17.0917 7.80735 17.0917H9.58432V12.3343H4.8263V14.1118C4.8263 14.4682 4.39551 14.6467 4.14357 14.3947L0.867138 11.1172C0.710954 10.961 0.710954 10.7077 0.867139 10.5514L4.14357 7.27396C4.39551 7.02193 4.8263 7.20043 4.8263 7.55685V9.33431H9.58432V4.57622H7.80677C7.45034 4.57622 7.27184 4.14544 7.52387 3.8935L10.8014 0.617142Z"
        fill="url(#paint0_linear_441_20400)" />
</svg>
