<svg width="28" height="28" viewBox="0 0 28 28" fill="none" xmlns="http://www.w3.org/2000/svg">
<path d="M13.1305 5.5545C13.5139 4.87984 14.4861 4.87984 14.8695 5.5545L23.9328 21.506C24.3116 22.1726 23.8301 23 23.0633 23H4.93665C4.16992 23 3.68842 22.1726 4.06719 21.506L13.1305 5.5545Z" stroke="#626A80" stroke-width="2"/>
<mask id="mask0_441_19292" style="mask-type:alpha" maskUnits="userSpaceOnUse" x="6" y="7" width="16" height="15">
<path d="M14 7.25L22 21.25H6L14 7.25Z" fill="#D9D9D9"/>
</mask>
<g mask="url(#mask0_441_19292)">
<path opacity="0.4" fill-rule="evenodd" clip-rule="evenodd" d="M13.5 6C13.2239 6 13 6.22386 13 6.5V7.5C13 7.77614 13.2239 8 13.5 8H14.5C14.7761 8 15 7.77614 15 7.5V6.5C15 6.22386 14.7761 6 14.5 6H13.5ZM9.5 10C9.5 9.72386 9.72386 9.5 10 9.5H11C11.2761 9.5 11.5 9.72386 11.5 10V11C11.5 11.2761 11.2761 11.5 11 11.5H10C9.72386 11.5 9.5 11.2761 9.5 11V10ZM9.5 13.5C9.5 13.2239 9.72386 13 10 13H11C11.2761 13 11.5 13.2239 11.5 13.5V14.5C11.5 14.7761 11.2761 15 11 15H10C9.72386 15 9.5 14.7761 9.5 14.5V13.5ZM10 16.5C9.72386 16.5 9.5 16.7239 9.5 17V18C9.5 18.2761 9.72386 18.5 10 18.5H11C11.2761 18.5 11.5 18.2761 11.5 18V17C11.5 16.7239 11.2761 16.5 11 16.5H10ZM9.5 20.5C9.5 20.2239 9.72386 20 10 20H11C11.2761 20 11.5 20.2239 11.5 20.5V21.5C11.5 21.7761 11.2761 22 11 22H10C9.72386 22 9.5 21.7761 9.5 21.5V20.5ZM13.5 9.5C13.2239 9.5 13 9.72386 13 10V11C13 11.2761 13.2239 11.5 13.5 11.5H14.5C14.7761 11.5 15 11.2761 15 11V10C15 9.72386 14.7761 9.5 14.5 9.5H13.5ZM13 13.5C13 13.2239 13.2239 13 13.5 13H14.5C14.7761 13 15 13.2239 15 13.5V14.5C15 14.7761 14.7761 15 14.5 15H13.5C13.2239 15 13 14.7761 13 14.5V13.5ZM13.5 16.5C13.2239 16.5 13 16.7239 13 17V18C13 18.2761 13.2239 18.5 13.5 18.5H14.5C14.7761 18.5 15 18.2761 15 18V17C15 16.7239 14.7761 16.5 14.5 16.5H13.5ZM13 20.5C13 20.2239 13.2239 20 13.5 20H14.5C14.7761 20 15 20.2239 15 20.5V21.5C15 21.7761 14.7761 22 14.5 22H13.5C13.2239 22 13 21.7761 13 21.5V20.5ZM17 9.5C16.7239 9.5 16.5 9.72386 16.5 10V11C16.5 11.2761 16.7239 11.5 17 11.5H18C18.2761 11.5 18.5 11.2761 18.5 11V10C18.5 9.72386 18.2761 9.5 18 9.5H17ZM16.5 13.5C16.5 13.2239 16.7239 13 17 13H18C18.2761 13 18.5 13.2239 18.5 13.5V14.5C18.5 14.7761 18.2761 15 18 15H17C16.7239 15 16.5 14.7761 16.5 14.5V13.5ZM17 16.5C16.7239 16.5 16.5 16.7239 16.5 17V18C16.5 18.2761 16.7239 18.5 17 18.5H18C18.2761 18.5 18.5 18.2761 18.5 18V17C18.5 16.7239 18.2761 16.5 18 16.5H17ZM16.5 20.5C16.5 20.2239 16.7239 20 17 20H18C18.2761 20 18.5 20.2239 18.5 20.5V21.5C18.5 21.7761 18.2761 22 18 22H17C16.7239 22 16.5 21.7761 16.5 21.5V20.5ZM20.5 16.5C20.2239 16.5 20 16.7239 20 17V18C20 18.2761 20.2239 18.5 20.5 18.5H21.5C21.7761 18.5 22 18.2761 22 18V17C22 16.7239 21.7761 16.5 21.5 16.5H20.5ZM20 20.5C20 20.2239 20.2239 20 20.5 20H21.5C21.7761 20 22 20.2239 22 20.5V21.5C22 21.7761 21.7761 22 21.5 22H20.5C20.2239 22 20 21.7761 20 21.5V20.5ZM6.5 16.5C6.22386 16.5 6 16.7239 6 17V18C6 18.2761 6.22386 18.5 6.5 18.5H7.5C7.77614 18.5 8 18.2761 8 18V17C8 16.7239 7.77614 16.5 7.5 16.5H6.5ZM6 20.5C6 20.2239 6.22386 20 6.5 20H7.5C7.77614 20 8 20.2239 8 20.5V21.5C8 21.7761 7.77614 22 7.5 22H6.5C6.22386 22 6 21.7761 6 21.5V20.5Z" fill="#626A80"/>
</g>
</svg>
